<?xml version="1.0" standalone="no"?>
<!DOCTYPE svg PUBLIC "-//W3C//DTD SVG 20010904//EN"
 "http://www.w3.org/TR/2001/REC-SVG-20010904/DTD/svg10.dtd">
<svg version="1.0" xmlns="http://www.w3.org/2000/svg"
 width="1080.000000pt" height="1080.000000pt" viewBox="0 0 1080.000000 1080.000000"
 preserveAspectRatio="xMidYMid meet">
<metadata>
Created by potrace 1.14, written by Peter Selinger 2001-2017
</metadata>
<g transform="translate(0.000000,1080.000000) scale(0.100000,-0.100000)"
fill="#000000" stroke="none">
<path d="M0 5400 l0 -5400 5400 0 5400 0 0 5400 0 5400 -5400 0 -5400 0 0
-5400z m6941 4575 c789 -79 1467 -391 2018 -929 603 -590 948 -1344 1002
-2189 12 -195 5 -291 -32 -399 -93 -279 -387 -460 -683 -420 -194 26 -368 138
-468 303 -65 107 -78 161 -94 392 -16 239 -44 396 -104 579 -95 289 -248 541
-465 767 -266 277 -580 462 -938 556 -174 45 -234 55 -394 65 -513 32 -1003
-122 -1403 -440 -96 -77 -273 -255 -341 -345 -204 -267 -336 -568 -400 -915
-23 -125 -23 -126 -29 -1315 l-5 -1190 -28 -75 c-57 -155 -174 -287 -318 -357
-107 -52 -170 -67 -289 -66 -117 0 -199 21 -304 76 -138 73 -244 199 -300 357
l-31 85 0 1210 c0 1326 -1 1289 61 1595 179 871 684 1621 1424 2115 620 414
1398 612 2121 540z m61 -3191 c67 -20 159 -67 218 -109 94 -69 189 -214 227
-346 17 -60 18 -133 18 -1239 0 -914 -3 -1202 -13 -1295 -72 -639 -316 -1236
-708 -1730 -141 -178 -413 -442 -594 -577 -196 -146 -296 -209 -490 -308 -261
-132 -449 -202 -723 -270 -502 -125 -1072 -125 -1574 0 -669 166 -1233 508
-1700 1029 -344 385 -595 859 -728 1377 -102 396 -132 824 -72 1010 65 196
224 354 422 417 55 17 94 22 185 22 135 0 182 -11 301 -72 175 -89 302 -263
329 -451 5 -37 14 -141 20 -232 31 -517 245 -982 616 -1340 389 -375 872 -571
1414 -571 451 0 856 133 1211 397 376 280 642 676 759 1128 65 251 63 206 69
1501 l6 1180 23 65 c81 225 279 395 499 430 76 12 217 4 285 -16z"/>
</g>
</svg>
