<?xml version="1.0" standalone="no"?>
<!DOCTYPE svg PUBLIC "-//W3C//DTD SVG 20010904//EN"
 "http://www.w3.org/TR/2001/REC-SVG-20010904/DTD/svg10.dtd">
<svg version="1.0" xmlns="http://www.w3.org/2000/svg"
 width="512.000000pt" height="512.000000pt" viewBox="0 0 512.000000 512.000000"
 preserveAspectRatio="xMidYMid meet">
<metadata>
Created by potrace 1.11, written by Peter Selinger 2001-2013
</metadata>
<g transform="translate(0.000000,512.000000) scale(0.100000,-0.100000)"
fill="#000000" stroke="none">
<path d="M2379 5116 c-2 -2 -37 -6 -77 -10 -41 -3 -77 -8 -81 -10 -4 -3 -27
-6 -50 -7 -23 -2 -45 -7 -47 -11 -3 -5 -9 -6 -14 -3 -5 3 -42 -2 -82 -11 -40
-8 -82 -17 -93 -19 -34 -6 -298 -95 -310 -105 -7 -6 -15 -7 -18 -3 -4 3 -7 1
-7 -5 0 -7 -3 -11 -7 -11 -22 4 -43 -3 -57 -17 -9 -8 -16 -12 -16 -8 0 3 -7 1
-15 -6 -8 -7 -15 -10 -15 -7 0 6 -140 -65 -218 -112 -29 -17 -55 -31 -58 -31
-7 0 -148 -103 -155 -113 -3 -5 -8 -7 -10 -5 -5 3 -13 -3 -63 -47 -16 -14 -32
-25 -35 -25 -21 0 -314 -293 -381 -381 -14 -18 -29 -37 -35 -43 -5 -6 -24 -31
-41 -56 -93 -133 -134 -196 -134 -207 0 -7 -5 -13 -11 -13 -5 0 -7 -4 -4 -10
3 -5 2 -10 -3 -10 -7 0 -120 -215 -120 -230 -1 -3 -14 -35 -30 -72 -17 -36
-28 -69 -25 -72 4 -3 2 -6 -4 -6 -5 0 -10 -6 -10 -12 -1 -7 -11 -39 -22 -70
-12 -32 -21 -66 -21 -76 0 -10 -4 -22 -9 -27 -11 -13 -42 -137 -56 -230 -2
-11 -6 -38 -10 -60 -3 -22 -11 -74 -17 -115 -19 -120 -15 -588 6 -651 3 -8 7
-32 10 -54 16 -123 61 -313 86 -370 8 -19 23 -64 25 -75 1 -8 47 -122 69 -170
11 -25 20 -47 21 -50 1 -7 68 -140 85 -170 62 -108 191 -300 201 -300 5 0 9
-5 9 -11 0 -37 281 -328 425 -441 28 -21 64 -50 80 -63 17 -13 32 -24 35 -23
3 1 17 -9 31 -23 56 -52 396 -239 434 -239 9 0 13 -4 10 -10 -3 -6 1 -7 9 -4
9 3 16 2 16 -4 0 -5 10 -12 23 -15 20 -5 151 -50 187 -64 8 -4 17 -7 20 -8 3
-1 30 -9 60 -18 46 -15 126 -34 225 -53 28 -5 75 -12 195 -28 105 -14 506 -15
560 -2 14 4 43 9 65 11 93 12 134 19 190 32 17 3 37 7 45 8 28 3 164 44 250
75 47 17 90 32 95 33 6 2 19 8 30 14 11 6 23 12 27 12 4 1 25 9 45 18 21 9 43
18 48 19 16 4 237 124 267 145 14 11 31 19 36 19 6 0 12 3 14 8 2 4 32 27 68
51 36 24 67 48 68 53 2 4 10 8 17 8 7 0 16 7 19 16 4 9 9 14 12 11 3 -3 14 2
23 11 10 10 53 49 96 87 87 78 221 214 256 260 13 17 29 34 36 38 7 4 13 15
13 22 0 8 4 15 8 15 5 0 31 32 58 71 27 39 55 77 62 84 6 8 12 18 12 24 0 6 5
11 10 11 6 0 10 4 10 10 0 5 16 34 35 64 19 30 35 57 35 60 0 3 13 27 29 55
16 27 27 52 24 55 -4 3 -2 6 3 6 11 0 40 65 33 75 -2 4 4 11 14 16 9 6 14 15
11 21 -4 6 -2 13 4 17 7 4 13 16 15 26 2 11 11 36 19 55 18 43 31 73 33 80 6
25 18 59 25 75 5 11 15 40 21 65 15 55 15 53 35 140 12 52 35 189 48 295 13
103 15 497 3 550 -4 18 -13 75 -22 145 -3 21 -23 123 -40 205 -17 79 -132 396
-168 460 -6 11 -11 22 -12 25 -1 14 -139 260 -156 278 -10 12 -19 24 -19 28 0
7 -43 67 -87 124 -13 15 -23 31 -23 34 0 4 -10 17 -22 30 -13 13 -52 56 -88
96 -97 109 -249 255 -311 298 -13 9 -26 19 -29 22 -5 6 -74 56 -155 112 -96
66 -337 198 -362 198 -7 0 -13 5 -13 11 0 5 -5 7 -11 3 -6 -3 -14 -2 -18 3 -7
11 -162 69 -173 65 -5 -1 -8 3 -8 8 0 6 -9 10 -20 10 -11 0 -28 4 -38 10 -9 5
-37 15 -62 21 -25 7 -49 14 -55 15 -5 2 -19 5 -30 8 -11 2 -42 10 -70 16 -27
7 -61 13 -75 15 -14 2 -74 11 -135 20 -96 15 -514 32 -526 21z m37 -714 l-1
-417 -470 -1 c-259 -1 -475 1 -482 3 -8 3 -5 17 12 43 14 22 26 45 27 52 2 7
11 21 21 32 9 11 17 23 17 28 0 11 81 127 149 213 69 87 261 279 261 260 0 -3
10 3 22 15 44 41 250 150 283 150 8 0 15 5 15 12 0 6 2 9 6 6 3 -3 26 0 51 6
26 7 56 13 68 14 l22 2 -1 -418z m414 393 c106 -33 272 -123 371 -202 62 -49
204 -203 270 -291 79 -107 134 -192 131 -204 -1 -5 2 -8 7 -8 5 0 13 -10 17
-22 3 -13 15 -35 25 -50 18 -25 18 -27 2 -31 -10 -3 -227 -4 -483 -4 l-465 2
-1 418 0 417 35 -4 c20 -3 61 -12 91 -21z m-1344 -240 c-1 -9 -9 -24 -17 -33
-8 -9 -30 -37 -49 -62 -19 -25 -38 -46 -42 -48 -5 -2 -8 -8 -8 -14 0 -6 -10
-25 -23 -42 -35 -47 -103 -167 -154 -269 -25 -51 -48 -94 -50 -97 -3 -3 -83
-5 -178 -6 -201 -1 -192 -12 -83 109 58 64 97 104 170 168 77 69 223 179 238
179 6 0 9 4 6 9 -3 4 13 16 35 26 22 10 49 27 61 37 11 9 24 15 28 13 5 -3 10
-2 12 2 2 6 46 40 55 42 1 1 0 -6 -1 -14z m2213 -25 c6 0 11 -4 11 -10 0 -5 3
-9 8 -8 8 3 64 -32 74 -47 4 -5 8 -6 8 -2 0 9 113 -72 118 -85 2 -4 10 -8 18
-8 8 0 14 -5 14 -11 0 -5 5 -7 10 -4 6 3 10 -1 10 -9 0 -9 4 -16 9 -16 5 0 16
-6 23 -13 7 -6 29 -25 48 -41 88 -71 242 -231 232 -240 -3 -3 -1 -6 5 -6 6 0
18 -11 26 -23 l15 -24 -171 2 c-200 2 -187 1 -187 20 0 8 -4 15 -10 15 -5 0
-10 6 -10 13 0 14 -69 151 -106 209 -13 21 -24 39 -24 41 0 6 -91 141 -99 147
-3 3 -17 22 -31 42 -14 21 -28 38 -32 38 -5 0 -8 7 -8 15 0 8 -4 15 -10 15 -5
0 -10 7 -10 16 0 13 5 12 29 -5 16 -12 34 -21 40 -21z m-2676 -859 c-3 -14
-12 -41 -19 -59 -7 -18 -13 -36 -12 -40 1 -4 -6 -33 -15 -65 -10 -32 -17 -63
-16 -70 1 -7 -3 -24 -9 -38 -5 -14 -12 -39 -15 -55 -3 -16 -12 -67 -21 -114
-21 -112 -24 -132 -32 -215 -3 -38 -8 -79 -10 -89 -2 -10 -6 -62 -10 -115 -3
-52 -7 -98 -9 -101 -2 -4 -129 -6 -282 -6 l-278 1 2 25 c5 78 13 168 18 190 2
14 9 48 15 75 6 28 12 59 14 70 18 94 88 305 133 403 14 31 27 59 27 62 5 17
41 86 49 91 4 3 9 12 11 20 1 8 8 23 15 35 13 20 21 21 232 21 l219 0 -7 -26z
m1392 -465 c-1 -270 -3 -494 -3 -497 -1 -3 -287 -5 -634 -5 l-633 1 2 65 c3
81 9 163 18 215 6 41 9 64 21 150 3 28 8 52 9 55 2 3 6 26 10 50 3 25 12 70
20 100 8 30 16 66 19 80 8 41 64 225 76 252 l12 25 542 0 543 -1 -2 -490z
m1403 414 c64 -202 106 -391 128 -580 3 -25 9 -63 13 -85 4 -22 7 -57 7 -78
-1 -20 1 -37 4 -37 3 0 5 -31 5 -68 l1 -69 -636 1 -635 1 -1 490 c-1 270 0
493 2 496 2 3 247 5 546 5 l542 -1 24 -75z m693 74 c16 -3 31 -16 41 -37 8
-18 31 -64 51 -102 71 -141 154 -385 183 -535 2 -8 6 -31 10 -50 4 -19 8 -44
9 -55 2 -11 6 -47 9 -80 4 -33 8 -76 9 -95 l2 -35 -278 -1 c-153 -1 -280 2
-282 6 -2 4 -7 51 -10 106 -9 154 -29 311 -59 459 -22 111 -40 187 -66 280
-17 61 -32 117 -34 126 -4 14 19 16 192 17 109 0 209 -2 223 -4z m-3657 -1285
c3 -3 8 -52 11 -109 3 -58 7 -118 10 -135 2 -16 6 -52 10 -80 4 -27 8 -62 11
-76 2 -15 6 -44 9 -65 3 -22 7 -50 10 -64 4 -14 8 -34 10 -45 10 -52 17 -82
44 -192 15 -63 41 -157 48 -173 19 -48 24 -47 -208 -47 l-218 1 -13 25 c-7 14
-19 32 -26 39 -7 8 -10 17 -7 22 3 5 2 10 -2 12 -8 3 -65 123 -102 213 -11 28
-32 91 -46 140 -15 50 -29 97 -32 105 -4 8 -7 21 -9 29 -1 7 -7 34 -13 60 -6
25 -13 57 -15 71 -3 14 -5 25 -6 25 -1 0 -3 18 -5 40 -3 22 -7 58 -10 80 -11
87 -12 120 -4 126 12 7 546 6 553 -2z m1561 -489 l0 -495 -545 0 -544 0 -24
75 c-13 41 -25 82 -27 90 -2 8 -11 40 -20 70 -18 62 -53 226 -61 283 -7 47
-12 72 -14 72 -1 0 -3 24 -6 54 -2 30 -9 58 -15 62 -7 4 -8 9 -1 13 6 3 7 19
3 38 -4 18 -7 43 -6 56 1 12 -3 22 -9 22 -6 0 -6 4 2 12 6 6 8 18 3 27 -6 13
-7 76 -2 112 1 3 286 5 634 5 l632 -1 0 -495z m1559 436 c-5 -86 -13 -187 -18
-212 -2 -11 -7 -47 -10 -80 -4 -32 -8 -66 -11 -74 -4 -14 -13 -68 -20 -120 -2
-14 -11 -54 -19 -90 -9 -36 -18 -76 -22 -90 -3 -14 -12 -47 -21 -75 -43 -143
-57 -181 -65 -186 -5 -3 -250 -5 -546 -5 l-537 1 -1 490 c-1 270 0 493 2 496
2 3 288 6 637 6 l635 0 -4 -61z m847 52 c4 -30 3 -88 -1 -88 -3 0 -6 -12 -6
-27 -2 -44 -14 -134 -25 -183 -6 -25 -12 -53 -14 -63 -2 -10 -7 -27 -10 -37
-3 -10 -8 -27 -10 -38 -19 -100 -135 -389 -200 -498 l-30 -51 -215 1 c-136 1
-215 5 -215 11 1 6 7 30 14 55 7 25 14 50 15 55 1 6 5 15 9 22 4 6 9 24 12 40
4 31 12 67 15 71 2 1 4 11 5 22 1 11 3 21 5 23 3 4 14 52 24 112 3 17 7 39 9
50 3 11 10 56 17 100 6 44 13 91 15 105 9 55 22 208 24 291 l1 35 280 1 c154
0 280 -4 281 -9z m-3629 -1372 c59 -119 149 -272 177 -303 11 -11 18 -23 15
-25 -2 -3 7 -17 21 -32 14 -15 25 -29 25 -32 0 -3 6 -11 13 -18 35 -37 58 -68
53 -74 -3 -3 -14 2 -24 11 -10 10 -23 17 -29 17 -6 0 -22 9 -35 20 -14 10 -27
17 -30 15 -3 -3 -13 4 -23 15 -10 11 -24 20 -32 20 -7 0 -13 5 -13 10 0 6 -7
10 -15 10 -8 0 -15 5 -15 10 0 6 -7 10 -15 10 -8 0 -15 5 -15 11 0 5 -4 7 -10
4 -5 -3 -10 -2 -10 3 0 5 -33 34 -72 65 -113 85 -207 173 -280 257 -26 30 -56
66 -67 79 -12 13 -21 25 -21 26 0 1 79 2 176 2 l175 -1 51 -100z m1224 -319
l1 -419 -44 7 c-24 3 -59 13 -78 21 -19 8 -38 15 -42 15 -45 7 -163 69 -263
138 -131 90 -254 214 -358 361 -26 36 -50 66 -54 68 -5 2 -8 8 -8 13 0 5 -15
33 -34 62 -19 29 -45 75 -58 103 l-24 50 481 1 481 0 0 -420z m1217 351 c-21
-37 -41 -68 -46 -68 -4 0 -6 -4 -2 -9 3 -5 -2 -16 -10 -24 -8 -9 -15 -20 -15
-26 0 -6 -4 -11 -10 -11 -5 0 -10 -5 -10 -10 0 -11 -34 -63 -58 -89 -7 -7 -21
-25 -30 -39 -39 -60 -244 -272 -263 -272 -4 0 -17 -10 -29 -22 -11 -12 -20
-18 -20 -14 0 6 -10 -1 -44 -31 -24 -22 -170 -94 -231 -115 -66 -22 -84 -27
-131 -34 l-31 -5 2 418 c1 230 2 418 3 419 1 0 218 0 482 0 l479 0 -36 -68z
m683 50 c-72 -102 -290 -308 -418 -395 -21 -14 -38 -30 -38 -35 0 -5 -4 -7 -8
-4 -5 3 -21 -7 -37 -22 -16 -15 -31 -25 -33 -23 -2 2 -11 -1 -21 -7 -63 -44
-90 -60 -94 -56 -2 3 -10 -2 -17 -11 -7 -8 -20 -15 -28 -15 -14 0 -14 1 -1 13
9 6 31 32 50 57 18 25 36 47 39 50 13 13 50 70 50 78 0 5 7 15 15 22 19 16 97
150 156 271 l48 96 175 0 c166 0 174 -1 162 -19z"/>
</g>
</svg>
